<svg xmlns="http://www.w3.org/2000/svg" x="0px" y="0px" width="50" height="50" viewBox="0 0 64 64"> <path d="M 10 5 C 9.448 5 9 5.448 9 6 L 9 8 L 7 8 C 6.448 8 6 8.448 6 9 L 6 55 C 6 55.552 6.448 56 7 56 L 9 56 L 9 58 C 9 58.552 9.448 59 10 59 L 54 59 C 54.552 59 55 58.552 55 58 L 55 56 L 57 56 C 57.552 56 58 55.552 58 55 L 58 9 C 58 8.448 57.552 8 57 8 L 55 8 L 55 6 C 55 5.448 54.552 5 54 5 L 10 5 z M 11 7 L 14 7 L 14 10 L 50 10 L 50 7 L 53 7 L 53 10 L 56 10 L 56 13 L 53 13 L 53 45 L 50 45 L 50 48 L 14 48 L 14 45 L 11 45 L 11 13 L 8 13 L 8 10 L 11 10 L 11 7 z M 11 10 L 11 13 L 14 13 L 14 10 L 11 10 z M 53 13 L 53 10 L 50 10 L 50 13 L 53 13 z M 22 19 L 22 34 L 25 34 L 25 19 L 22 19 z M 39 19 L 39 34 L 42 34 L 42 19 L 39 19 z M 8 51 L 11 51 L 11 54 L 14 54 L 14 57 L 11 57 L 11 54 L 8 54 L 8 51 z M 53 51 L 56 51 L 56 54 L 53 54 L 53 57 L 50 57 L 50 54 L 53 54 L 53 51 z"></path></svg>